<?xml version="1.0" encoding="UTF-8" standalone="no"?>
<svg viewBox="0 0 460 2630"
     preserveAspectRatio="xMidYMid meet"
     version="1.1"
     baseProfile="full"
     xmlns="http://www.w3.org/2000/svg"
     xmlns:xlink="http://www.w3.org/1999/xlink"
     xmlns:ev="http://www.w3.org/2001/xml-events"
     xml:space="preserve">
<title>kvq_phase1_bd_imp</title>
<desc>Nlview schematic (SVG)</desc>
<clipPath id="clippingbbox">
<rect x="0" y="0" width="2630" height="460" />
</clipPath>
<g stroke="#102235"
   stroke-width="1"
   stroke-linecap="butt"
   stroke-linejoin="miter"
   stroke-miterlimit="4"
   stroke-dasharray="none"
   stroke-dashoffset="0"
   fill="none"
   font-family="Helvetica"
   font-style="normal"
   font-size="12"
   writing-mode="lr-tb"
   cursor="crosshair"
   transform="rotate(-90) translate(-2630)"
   clip-path="url(#clippingbbox)">
<path d="M0 0h2630v461h-2630z" stroke="none" fill="white" />
<path d="M57 312h106l3 1l2 1l1 2l1 3v62l-1 3l-1 2l-2 1l-3 1h-106l-3 -1l-2 -1l-1 -2l-1 -3v-62l1 -3l1 -2l2 -1z" stroke="none" fill="#edf6fe" />
<text x="110" y="310" fill="black" stroke-width="0" text-anchor="middle" dy="-1.6">clk_wiz_0</text>
<text x="110" y="390" fill="#41619f" stroke-width="0" text-anchor="middle" dy="9.6">Clocking Wizard</text>
<g stroke="black" stroke-width="3">
<circle cx="47" cy="340" r="3" />
<path d="M40 340h4" />
<text x="52" y="340" fill="black" stroke-width="0" font-size="10" dy="3.66667">resetn</text>
<path d="M40 360h10" />
<text x="52" y="360" fill="black" stroke-width="0" font-size="10" dy="3.66667">clk_in1</text>
<path d="M180 340h-10" />
<text x="168" y="340" fill="black" stroke-width="0" font-size="10" text-anchor="end" dy="3.66667">clk_out1</text>
<path d="M180 360h-10" />
<text x="168" y="360" fill="black" stroke-width="0" font-size="10" text-anchor="end" dy="3.66667">locked</text>
</g>
<g stroke="#41619f">
<path d="M57 312h106" />
<path d="M163,312 A6.83537,6.83537 1.61957 0,1 170,319" />
<path d="M170 319v62" />
<path d="M170,381 A6.83537,6.83537 1.61957 0,1 163,388" />
<path d="M163 388h-106" />
<path d="M57,388 A6.83537,6.83537 1.61957 0,1 50,381" />
<path d="M50 381v-62" />
<path d="M50,319 A6.83537,6.83537 1.61957 0,1 57,312" />
<path d="M247 252h286l3 1l2 1l1 2l1 3v122l-1 3l-1 2l-2 1l-3 1h-286l-3 -1l-2 -1l-1 -2l-1 -3v-122l1 -3l1 -2l2 -1z" stroke="none" fill="#edf6fe" />
<text x="390" y="250" fill="black" stroke-width="0" text-anchor="middle" dy="-1.6">reset_0</text>
<text x="390" y="390" fill="#41619f" stroke-width="0" text-anchor="middle" dy="9.6">Processor System Reset</text>
</g>
<g stroke="black" stroke-width="3">
<path d="M230 280h10" />
<text x="242" y="280" fill="black" stroke-width="0" font-size="10" dy="3.66667">slowest_sync_clk</text>
<circle cx="237" cy="300" r="3" />
<path d="M230 300h4" />
<text x="242" y="300" fill="black" stroke-width="0" font-size="10" dy="3.66667">ext_reset_in</text>
<circle cx="237" cy="320" r="3" />
<path d="M230 320h4" />
<text x="242" y="320" fill="black" stroke-width="0" font-size="10" dy="3.66667">aux_reset_in</text>
<path d="M230 340h10" />
<text x="242" y="340" fill="black" stroke-width="0" font-size="10" dy="3.66667">mb_debug_sys_rst</text>
<path d="M230 360h10" />
<text x="242" y="360" fill="black" stroke-width="0" font-size="10" dy="3.66667">dcm_locked</text>
<path d="M550 280h-10" />
<text x="538" y="280" fill="black" stroke-width="0" font-size="10" text-anchor="end" dy="3.66667">mb_reset</text>
</g>
<g stroke="black" stroke-width="5">
<path d="M550 300h-10" />
<text x="538" y="300" fill="black" stroke-width="0" font-size="10" text-anchor="end" dy="3.66667">bus_struct_reset[0:0]</text>
<path d="M550 320h-10" />
<text x="538" y="320" fill="black" stroke-width="0" font-size="10" text-anchor="end" dy="3.66667">peripheral_reset[0:0]</text>
<circle cx="543" cy="340" r="3" />
<path d="M550 340h-4" />
<text x="538" y="340" fill="black" stroke-width="0" font-size="10" text-anchor="end" dy="3.66667">interconnect_aresetn[0:0]</text>
<circle cx="543" cy="360" r="3" />
<path d="M550 360h-4" />
<text x="538" y="360" fill="black" stroke-width="0" font-size="10" text-anchor="end" dy="3.66667">peripheral_aresetn[0:0]</text>
</g>
<g stroke="#41619f">
<path d="M247 252h286" />
<path d="M533,252 A6.83537,6.83537 1.61957 0,1 540,259" />
<path d="M540 259v122" />
<path d="M540,381 A6.83537,6.83537 1.61957 0,1 533,388" />
<path d="M533 388h-286" />
<path d="M247,388 A6.83537,6.83537 1.61957 0,1 240,381" />
<path d="M240 381v-122" />
<path d="M240,259 A6.83537,6.83537 1.61957 0,1 247,252" />
<path d="M627 42h206l3 1l2 1l1 2l1 3v102l-1 3l-1 2l-2 1l-3 1h-206l-3 -1l-2 -1l-1 -2l-1 -3v-102l1 -3l1 -2l2 -1z" stroke="none" fill="#edf6fe" />
<text x="730" y="40" fill="black" stroke-width="0" text-anchor="middle" dy="-1.6">smartconnect_data</text>
<text x="730" y="160" fill="#41619f" stroke-width="0" text-anchor="middle" dy="9.6">AXI SmartConnect</text>
<path d="M610 61h10v18h-10z" stroke="none" fill="#edf6fe" />
</g>
<g stroke="black" stroke-width="3">
<path d="M629 65v10" />
<path d="M624 70h10" />
</g>
<g stroke="black">
<path d="M622 63h14v14h-14z" />
<text x="637" y="70" fill="black" stroke-width="0" font-size="10" dy="3.66667">S00_AXI</text>
<path d="M610 81h10v18h-10z" stroke="none" fill="#edf6fe" />
</g>
<g stroke="black" stroke-width="3">
<path d="M629 85v10" />
<path d="M624 90h10" />
</g>
<g stroke="black">
<path d="M622 83h14v14h-14z" />
<text x="637" y="90" fill="black" stroke-width="0" font-size="10" dy="3.66667">S01_AXI</text>
<path d="M840 91h10v18h-10z" stroke="none" fill="#edf6fe" />
</g>
<g stroke="black" stroke-width="3">
<path d="M830 95v10" />
<path d="M825 100h10" />
</g>
<g stroke="black">
<path d="M823 93h14v14h-14z" />
<text x="823" y="100" fill="black" stroke-width="0" font-size="10" text-anchor="end" dy="3.66667">M00_AXI</text>
</g>
<g stroke="black" stroke-width="3">
<path d="M610 110h10" />
<text x="622" y="110" fill="black" stroke-width="0" font-size="10" dy="3.66667">aclk</text>
<circle cx="617" cy="130" r="3" />
<path d="M610 130h4" />
<text x="622" y="130" fill="black" stroke-width="0" font-size="10" dy="3.66667">aresetn</text>
</g>
<g stroke="#41619f">
<path d="M627 42h206" />
<path d="M833,42 A6.83537,6.83537 1.61957 0,1 840,49" />
<path d="M840 49v102" />
<path d="M840,151 A6.83537,6.83537 1.61957 0,1 833,158" />
<path d="M833 158h-206" />
<path d="M627,158 A6.83537,6.83537 1.61957 0,1 620,151" />
<path d="M620 151v-102" />
<path d="M620,49 A6.83537,6.83537 1.61957 0,1 627,42" />
<path d="M947 48h526l3 1l2 1l1 2l1 3v110l-1 3l-1 2l-2 1l-3 1h-526l-3 -1l-2 -1l-1 -2l-1 -3v-110l1 -3l1 -2l2 -1z" stroke="none" fill="#edf6fe" />
<text x="1210" y="46" fill="black" stroke-width="0" text-anchor="middle" dy="-1.6">ps_e_0</text>
<text x="1210" y="174" fill="#41619f" stroke-width="0" text-anchor="middle" dy="9.6">Zynq UltraScale+ MPSoC</text>
<path d="M1480 71h10v18h-10z" stroke="none" fill="#edf6fe" />
</g>
<g stroke="black" stroke-width="3">
<path d="M1470 75v10" />
<path d="M1465 80h10" />
</g>
<g stroke="black">
<path d="M1463 73h14v14h-14z" />
<text x="1463" y="80" fill="black" stroke-width="0" font-size="10" text-anchor="end" dy="3.66667">M_AXI_HPM0_FPD</text>
<path d="M1480 91h10v18h-10z" stroke="none" fill="#edf6fe" />
</g>
<g stroke="black" stroke-width="3">
<path d="M1470 95v10" />
<path d="M1465 100h10" />
</g>
<g stroke="black">
<path d="M1463 93h14v14h-14z" />
<text x="1463" y="100" fill="black" stroke-width="0" font-size="10" text-anchor="end" dy="3.66667">M_AXI_HPM0_LPD</text>
<path d="M930 71h10v18h-10z" stroke="none" fill="#edf6fe" />
</g>
<g stroke="black" stroke-width="3">
<path d="M949 75v10" />
<path d="M944 80h10" />
</g>
<g stroke="black">
<path d="M942 73h14v14h-14z" />
<text x="957" y="80" fill="black" stroke-width="0" font-size="10" dy="3.66667">S_AXI_HP0_FPD</text>
</g>
<g stroke="black" stroke-width="3">
<path d="M930 100h10" />
<text x="942" y="100" fill="black" stroke-width="0" font-size="10" dy="3.66667">maxihpm0_fpd_aclk</text>
<path d="M930 120h10" />
<text x="942" y="120" fill="black" stroke-width="0" font-size="10" dy="3.66667">maxihpm0_lpd_aclk</text>
<path d="M930 140h10" />
<text x="942" y="140" fill="black" stroke-width="0" font-size="10" dy="3.66667">saxihp0_fpd_aclk</text>
<circle cx="1483" cy="120" r="3" />
<path d="M1490 120h-4" />
<text x="1478" y="120" fill="black" stroke-width="0" font-size="10" text-anchor="end" dy="3.66667">pl_resetn0</text>
<path d="M1490 140h-10" />
<text x="1478" y="140" fill="black" stroke-width="0" font-size="10" text-anchor="end" dy="3.66667">pl_clk0</text>
</g>
<g stroke="#41619f">
<path d="M947 48h526" />
<path d="M1473,48 A6.83537,6.83537 1.61957 0,1 1480,55" />
<path d="M1480 55v110" />
<path d="M1480,165 A6.83537,6.83537 1.61957 0,1 1473,172" />
<path d="M1473 172h-526" />
<path d="M947,172 A6.83537,6.83537 1.61957 0,1 940,165" />
<path d="M940 165v-110" />
<path d="M940,55 A6.83537,6.83537 1.61957 0,1 947,48" />
<path d="M1597 282h206l3 1l2 1l1 2l1 3v82l-1 3l-1 2l-2 1l-3 1h-206l-3 -1l-2 -1l-1 -2l-1 -3v-82l1 -3l1 -2l2 -1z" stroke="none" fill="#edf6fe" />
<text x="1700" y="280" fill="black" stroke-width="0" text-anchor="middle" dy="-1.6">smartconnect_axil</text>
<text x="1700" y="380" fill="#41619f" stroke-width="0" text-anchor="middle" dy="9.6">AXI SmartConnect</text>
<path d="M1580 301h10v18h-10z" stroke="none" fill="#edf6fe" />
</g>
<g stroke="black" stroke-width="3">
<path d="M1599 305v10" />
<path d="M1594 310h10" />
</g>
<g stroke="black">
<path d="M1592 303h14v14h-14z" />
<text x="1607" y="310" fill="black" stroke-width="0" font-size="10" dy="3.66667">S00_AXI</text>
<path d="M1810 321h10v18h-10z" stroke="none" fill="#edf6fe" />
</g>
<g stroke="black" stroke-width="3">
<path d="M1800 325v10" />
<path d="M1795 330h10" />
</g>
<g stroke="black">
<path d="M1793 323h14v14h-14z" />
<text x="1793" y="330" fill="black" stroke-width="0" font-size="10" text-anchor="end" dy="3.66667">M00_AXI</text>
</g>
<g stroke="black" stroke-width="3">
<path d="M1580 330h10" />
<text x="1592" y="330" fill="black" stroke-width="0" font-size="10" dy="3.66667">aclk</text>
<circle cx="1587" cy="350" r="3" />
<path d="M1580 350h4" />
<text x="1592" y="350" fill="black" stroke-width="0" font-size="10" dy="3.66667">aresetn</text>
</g>
<g stroke="#41619f">
<path d="M1597 282h206" />
<path d="M1803,282 A6.83537,6.83537 1.61957 0,1 1810,289" />
<path d="M1810 289v82" />
<path d="M1810,371 A6.83537,6.83537 1.61957 0,1 1803,378" />
<path d="M1803 378h-206" />
<path d="M1597,378 A6.83537,6.83537 1.61957 0,1 1590,371" />
<path d="M1590 371v-82" />
<path d="M1590,289 A6.83537,6.83537 1.61957 0,1 1597,282" />
<path d="M1947 52h206l3 1l2 1l1 2l1 3v82l-1 3l-1 2l-2 1l-3 1h-206l-3 -1l-2 -1l-1 -2l-1 -3v-82l1 -3l1 -2l2 -1z" stroke="none" fill="#edf6fe" />
<text x="2050" y="50" fill="black" stroke-width="0" text-anchor="middle" dy="-1.6">smartconnect_dma_ctrl</text>
<text x="2050" y="150" fill="#41619f" stroke-width="0" text-anchor="middle" dy="9.6">AXI SmartConnect</text>
<path d="M1930 71h10v18h-10z" stroke="none" fill="#edf6fe" />
</g>
<g stroke="black" stroke-width="3">
<path d="M1949 75v10" />
<path d="M1944 80h10" />
</g>
<g stroke="black">
<path d="M1942 73h14v14h-14z" />
<text x="1957" y="80" fill="black" stroke-width="0" font-size="10" dy="3.66667">S00_AXI</text>
<path d="M2160 91h10v18h-10z" stroke="none" fill="#edf6fe" />
</g>
<g stroke="black" stroke-width="3">
<path d="M2150 95v10" />
<path d="M2145 100h10" />
</g>
<g stroke="black">
<path d="M2143 93h14v14h-14z" />
<text x="2143" y="100" fill="black" stroke-width="0" font-size="10" text-anchor="end" dy="3.66667">M00_AXI</text>
</g>
<g stroke="black" stroke-width="3">
<path d="M1930 100h10" />
<text x="1942" y="100" fill="black" stroke-width="0" font-size="10" dy="3.66667">aclk</text>
<circle cx="1937" cy="120" r="3" />
<path d="M1930 120h4" />
<text x="1942" y="120" fill="black" stroke-width="0" font-size="10" dy="3.66667">aresetn</text>
</g>
<g stroke="#41619f">
<path d="M1947 52h206" />
<path d="M2153,52 A6.83537,6.83537 1.61957 0,1 2160,59" />
<path d="M2160 59v82" />
<path d="M2160,141 A6.83537,6.83537 1.61957 0,1 2153,148" />
<path d="M2153 148h-206" />
<path d="M1947,148 A6.83537,6.83537 1.61957 0,1 1940,141" />
<path d="M1940 141v-82" />
<path d="M1940,59 A6.83537,6.83537 1.61957 0,1 1947,52" />
<path d="M1897 262h306l3 1l2 1l1 2l1 3v142l-1 3l-1 2l-2 1l-3 1h-306l-3 -1l-2 -1l-1 -2l-1 -3v-142l1 -3l1 -2l2 -1z" stroke="none" fill="#edf6fe" />
<text x="2050" y="260" fill="black" stroke-width="0" text-anchor="middle" dy="-1.6">kvq_top_0</text>
<text x="2050" y="420" fill="#41619f" stroke-width="0" text-anchor="middle" dy="9.6">kvq_top_bd_wrap_v1_0</text>
<path d="M2210 281h10v18h-10z" stroke="none" fill="#edf6fe" />
</g>
<g stroke="black" stroke-width="3">
<path d="M2200 285v10" />
<path d="M2195 290h10" />
</g>
<g stroke="black">
<path d="M2193 283h14v14h-14z" />
<text x="2193" y="290" fill="black" stroke-width="0" font-size="10" text-anchor="end" dy="3.66667">m_axis_resp</text>
<path d="M1880 301h10v18h-10z" stroke="none" fill="#edf6fe" />
</g>
<g stroke="black" stroke-width="3">
<path d="M1899 305v10" />
<path d="M1894 310h10" />
</g>
<g stroke="black">
<path d="M1892 303h14v14h-14z" />
<text x="1907" y="310" fill="black" stroke-width="0" font-size="10" dy="3.66667">s_axis_req</text>
<path d="M1880 321h10v18h-10z" stroke="none" fill="#edf6fe" />
</g>
<g stroke="black" stroke-width="3">
<path d="M1899 325v10" />
<path d="M1894 330h10" />
</g>
<g stroke="black">
<path d="M1892 323h14v14h-14z" />
<text x="1907" y="330" fill="black" stroke-width="0" font-size="10" dy="3.66667">s_axi_lite</text>
</g>
<g stroke="black" stroke-width="3">
<path d="M1880 350h10" />
<text x="1892" y="350" fill="black" stroke-width="0" font-size="10" dy="3.66667">clk</text>
<circle cx="1887" cy="370" r="3" />
<path d="M1880 370h4" />
<text x="1892" y="370" fill="black" stroke-width="0" font-size="10" dy="3.66667">rst_n</text>
<path d="M2220 310h-10" />
<text x="2208" y="310" fill="black" stroke-width="0" font-size="10" text-anchor="end" dy="3.66667">error_seen</text>
<path d="M2220 330h-10" />
<text x="2208" y="330" fill="black" stroke-width="0" font-size="10" text-anchor="end" dy="3.66667">queue_full</text>
<path d="M2220 350h-10" />
<text x="2208" y="350" fill="black" stroke-width="0" font-size="10" text-anchor="end" dy="3.66667">deadline_miss_seen</text>
</g>
<g stroke="black" stroke-width="5">
<path d="M2220 370h-10" />
<text x="2208" y="370" fill="black" stroke-width="0" font-size="10" text-anchor="end" dy="3.66667">active_tenant_count[7:0]</text>
<path d="M2220 390h-10" />
<text x="2208" y="390" fill="black" stroke-width="0" font-size="10" text-anchor="end" dy="3.66667">global_queue_occupancy[15:0]</text>
</g>
<g stroke="#41619f">
<path d="M1897 262h306" />
<path d="M2203,262 A6.83537,6.83537 1.61957 0,1 2210,269" />
<path d="M2210 269v142" />
<path d="M2210,411 A6.83537,6.83537 1.61957 0,1 2203,418" />
<path d="M2203 418h-306" />
<path d="M1897,418 A6.83537,6.83537 1.61957 0,1 1890,411" />
<path d="M1890 411v-142" />
<path d="M1890,269 A6.83537,6.83537 1.61957 0,1 1897,262" />
<path d="M2297 252h266l3 1l2 1l1 2l1 3v162l-1 3l-1 2l-2 1l-3 1h-266l-3 -1l-2 -1l-1 -2l-1 -3v-162l1 -3l1 -2l2 -1z" stroke="none" fill="#edf6fe" />
<text x="2430" y="250" fill="black" stroke-width="0" text-anchor="middle" dy="-1.6">axi_dma_0</text>
<text x="2430" y="430" fill="#41619f" stroke-width="0" text-anchor="middle" dy="9.6">AXI Direct Memory Access</text>
<path d="M2280 281h10v18h-10z" stroke="none" fill="#edf6fe" />
</g>
<g stroke="black" stroke-width="3">
<path d="M2299 285v10" />
<path d="M2294 290h10" />
</g>
<g stroke="black">
<path d="M2292 283h14v14h-14z" />
<text x="2307" y="290" fill="black" stroke-width="0" font-size="10" dy="3.66667">S_AXI_LITE</text>
<path d="M2570 271h10v18h-10z" stroke="none" fill="#edf6fe" />
</g>
<g stroke="black" stroke-width="3">
<path d="M2560 275v10" />
<path d="M2555 280h10" />
</g>
<g stroke="black">
<path d="M2553 273h14v14h-14z" />
<text x="2553" y="280" fill="black" stroke-width="0" font-size="10" text-anchor="end" dy="3.66667">M_AXI_MM2S</text>
<path d="M2570 291h10v18h-10z" stroke="none" fill="#edf6fe" />
</g>
<g stroke="black" stroke-width="3">
<path d="M2560 295v10" />
<path d="M2555 300h10" />
</g>
<g stroke="black">
<path d="M2553 293h14v14h-14z" />
<text x="2553" y="300" fill="black" stroke-width="0" font-size="10" text-anchor="end" dy="3.66667">M_AXI_S2MM</text>
<path d="M2570 311h10v18h-10z" stroke="none" fill="#edf6fe" />
</g>
<g stroke="black" stroke-width="3">
<path d="M2560 315v10" />
<path d="M2555 320h10" />
</g>
<g stroke="black">
<path d="M2553 313h14v14h-14z" />
<text x="2553" y="320" fill="black" stroke-width="0" font-size="10" text-anchor="end" dy="3.66667">M_AXIS_MM2S</text>
<path d="M2280 301h10v18h-10z" stroke="none" fill="#edf6fe" />
</g>
<g stroke="black" stroke-width="3">
<path d="M2299 305v10" />
<path d="M2294 310h10" />
</g>
<g stroke="black">
<path d="M2292 303h14v14h-14z" />
<text x="2307" y="310" fill="black" stroke-width="0" font-size="10" dy="3.66667">S_AXIS_S2MM</text>
</g>
<g stroke="black" stroke-width="3">
<path d="M2280 330h10" />
<text x="2292" y="330" fill="black" stroke-width="0" font-size="10" dy="3.66667">s_axi_lite_aclk</text>
<path d="M2280 350h10" />
<text x="2292" y="350" fill="black" stroke-width="0" font-size="10" dy="3.66667">m_axi_mm2s_aclk</text>
<path d="M2280 370h10" />
<text x="2292" y="370" fill="black" stroke-width="0" font-size="10" dy="3.66667">m_axi_s2mm_aclk</text>
<circle cx="2287" cy="390" r="3" />
<path d="M2280 390h4" />
<text x="2292" y="390" fill="black" stroke-width="0" font-size="10" dy="3.66667">axi_resetn</text>
<circle cx="2573" cy="340" r="3" />
<path d="M2580 340h-4" />
<text x="2568" y="340" fill="black" stroke-width="0" font-size="10" text-anchor="end" dy="3.66667">mm2s_prmry_reset_out_n</text>
<circle cx="2573" cy="360" r="3" />
<path d="M2580 360h-4" />
<text x="2568" y="360" fill="black" stroke-width="0" font-size="10" text-anchor="end" dy="3.66667">s2mm_prmry_reset_out_n</text>
<path d="M2580 380h-10" />
<text x="2568" y="380" fill="black" stroke-width="0" font-size="10" text-anchor="end" dy="3.66667">mm2s_introut</text>
<path d="M2580 400h-10" />
<text x="2568" y="400" fill="black" stroke-width="0" font-size="10" text-anchor="end" dy="3.66667">s2mm_introut</text>
</g>
<g stroke="#41619f">
<path d="M2297 252h266" />
<path d="M2563,252 A6.83537,6.83537 1.61957 0,1 2570,259" />
<path d="M2570 259v162" />
<path d="M2570,421 A6.83537,6.83537 1.61957 0,1 2563,428" />
<path d="M2563 428h-266" />
<path d="M2297,428 A6.83537,6.83537 1.61957 0,1 2290,421" />
<path d="M2290 421v-162" />
<path d="M2290,259 A6.83537,6.83537 1.61957 0,1 2297,252" />
</g>
<g stroke="#41619f" stroke-width="4">
<path d="M1880 310h-20v-90h760v100h-40" />
<path d="M610 70h-20v-60h970v170h1050v100h-30" />
<path d="M610 90h-20v120h300v10h670v-10h1040v90h-20" />
</g>
<g>
<path d="M180 340h30v-160h360" />
<path d="M568 178h5v5h-5z" stroke="none" fill="#102235" />
<path d="M930 100h-30v150h640" />
<path d="M1538 248h5v5h-5z" stroke="none" fill="#102235" />
<path d="M1930 100h-90v250h40" />
<path d="M210 280h20" />
<path d="M208 278h5v5h-5z" stroke="none" fill="#102235" />
<path d="M610 110h-40v90h330" />
<path d="M898 118h5v5h-5z" stroke="none" fill="#102235" />
<path d="M898 138h5v5h-5z" stroke="none" fill="#102235" />
<path d="M898 198h5v5h-5z" stroke="none" fill="#102235" />
<path d="M1580 330h-40v-170h300" />
<path d="M1840 230h410v140h30" />
<path d="M2250 330h30" />
<path d="M2250 350h30" />
<path d="M2248 328h5v5h-5z" stroke="none" fill="#102235" />
<path d="M2248 348h5v5h-5z" stroke="none" fill="#102235" />
<path d="M900 120h30" />
<path d="M900 140h30" />
<path d="M1838 158h5v5h-5z" stroke="none" fill="#102235" />
<path d="M1838 228h5v5h-5z" stroke="none" fill="#102235" />
<path d="M180 360h50" />
</g>
<g stroke="#41619f" stroke-width="4">
<path d="M2220 290h20v20h40" />
<path d="M1490 80h440" />
<path d="M1490 100h40v210h50" />
</g>
<g>
<path d="M40 360h-30v-170h900v20h600v-70h-20" />
<path d="M40 340h-20v-60h180" />
<path d="M198 278h5v5h-5z" stroke="none" fill="#102235" />
<path d="M230 300h-30v-80h680v10h640v-110h-30" />
</g>
<g stroke-width="3">
<path d="M550 360h30v-230h30" />
<path d="M580 230h290v10h680" />
<path d="M1547 237h7v7h-7z" stroke="none" fill="#102235" />
<path d="M1930 120h-80v330h410v-60h20" />
<path d="M577 227h7v7h-7z" stroke="none" fill="#102235" />
<path d="M1580 350h-30v-180h300" />
<path d="M1850 370h30" />
<path d="M1847 167h7v7h-7z" stroke="none" fill="#102235" />
<path d="M1847 367h7v7h-7z" stroke="none" fill="#102235" />
</g>
<g stroke="#41619f" stroke-width="4">
<path d="M1820 330h60" />
<path d="M850 100h40v-20h40" />
<path d="M2170 100h90v190h20" />
</g>
</g>
</svg>
